<svg width="40" height="40" viewBox="0 0 40 40" fill="none" xmlns="http://www.w3.org/2000/svg">
<g opacity="0.7">
<path d="M6.66569 21.6678H16.6657C17.5824 21.6678 18.3324 20.9178 18.3324 20.0011V6.66778C18.3324 5.75111 17.5824 5.00111 16.6657 5.00111H6.66569C5.74902 5.00111 4.99902 5.75111 4.99902 6.66778V20.0011C4.99902 20.9178 5.74902 21.6678 6.66569 21.6678ZM6.66569 35.0011H16.6657C17.5824 35.0011 18.3324 34.2511 18.3324 33.3344V26.6678C18.3324 25.7511 17.5824 25.0011 16.6657 25.0011H6.66569C5.74902 25.0011 4.99902 25.7511 4.99902 26.6678V33.3344C4.99902 34.2511 5.74902 35.0011 6.66569 35.0011ZM23.3324 35.0011H33.3324C34.249 35.0011 34.999 34.2511 34.999 33.3344V20.0011C34.999 19.0844 34.249 18.3344 33.3324 18.3344H23.3324C22.4157 18.3344 21.6657 19.0844 21.6657 20.0011V33.3344C21.6657 34.2511 22.4157 35.0011 23.3324 35.0011ZM21.6657 6.66778V13.3344C21.6657 14.2511 22.4157 15.0011 23.3324 15.0011H33.3324C34.249 15.0011 34.999 14.2511 34.999 13.3344V6.66778C34.999 5.75111 34.249 5.00111 33.3324 5.00111H23.3324C22.4157 5.00111 21.6657 5.75111 21.6657 6.66778Z" fill="white"/>
</g>
</svg>
